<mxfile host="app.diagrams.net" agent="Mozilla/5.0 (Windows NT 10.0; Win64; x64; rv:134.0) Gecko/20100101 Firefox/134.0" version="25.0.1">
  <diagram name="Pagina-1" id="2L5b3_KFScyQHnQir17a">
    <mxGraphModel dx="308" dy="618" grid="1" gridSize="1" guides="1" tooltips="1" connect="1" arrows="1" fold="1" page="1" pageScale="1" pageWidth="1169" pageHeight="1654" math="0" shadow="0">
      <root>
        <mxCell id="0" />
        <mxCell id="1" parent="0" />
        <mxCell id="7LMpTIWVdaY8dt_LthVV-1" value="Passeggero" style="rounded=0;whiteSpace=wrap;html=1;" vertex="1" parent="1">
          <mxGeometry x="172" y="251" width="120" height="60" as="geometry" />
        </mxCell>
        <mxCell id="sJiP2ykC0ouA6XT0tgiy-2" value="" style="endArrow=none;html=1;rounded=0;entryX=1;entryY=1;entryDx=0;entryDy=0;" edge="1" parent="1" source="sJiP2ykC0ouA6XT0tgiy-3" target="7LMpTIWVdaY8dt_LthVV-1">
          <mxGeometry width="50" height="50" relative="1" as="geometry">
            <mxPoint x="292" y="321" as="sourcePoint" />
            <mxPoint x="262" y="381" as="targetPoint" />
          </mxGeometry>
        </mxCell>
        <mxCell id="sJiP2ykC0ouA6XT0tgiy-3" value="&lt;font style=&quot;font-size: 9px;&quot;&gt;Id_Passeggero&lt;/font&gt;" style="text;html=1;align=center;verticalAlign=middle;resizable=0;points=[];autosize=1;strokeColor=none;fillColor=none;" vertex="1" parent="1">
          <mxGeometry x="247" y="320" width="90" height="30" as="geometry" />
        </mxCell>
        <mxCell id="sJiP2ykC0ouA6XT0tgiy-6" value="" style="endArrow=none;html=1;rounded=0;" edge="1" parent="1" source="sJiP2ykC0ouA6XT0tgiy-7">
          <mxGeometry width="50" height="50" relative="1" as="geometry">
            <mxPoint x="172" y="321" as="sourcePoint" />
            <mxPoint x="172" y="311" as="targetPoint" />
          </mxGeometry>
        </mxCell>
        <mxCell id="sJiP2ykC0ouA6XT0tgiy-7" value="&lt;font style=&quot;font-size: 9px;&quot;&gt;Cognome&lt;/font&gt;" style="text;html=1;align=center;verticalAlign=middle;resizable=0;points=[];autosize=1;strokeColor=none;fillColor=none;" vertex="1" parent="1">
          <mxGeometry x="142" y="320" width="60" height="30" as="geometry" />
        </mxCell>
        <mxCell id="sJiP2ykC0ouA6XT0tgiy-8" value="" style="endArrow=none;html=1;rounded=0;entryX=0;entryY=0;entryDx=0;entryDy=0;" edge="1" parent="1" source="sJiP2ykC0ouA6XT0tgiy-9" target="7LMpTIWVdaY8dt_LthVV-1">
          <mxGeometry width="50" height="50" relative="1" as="geometry">
            <mxPoint x="197" y="212" as="sourcePoint" />
            <mxPoint x="197" y="202" as="targetPoint" />
          </mxGeometry>
        </mxCell>
        <mxCell id="sJiP2ykC0ouA6XT0tgiy-9" value="&lt;font style=&quot;font-size: 9px;&quot;&gt;NazionalitÃ &lt;/font&gt;" style="text;html=1;align=center;verticalAlign=middle;resizable=0;points=[];autosize=1;strokeColor=none;fillColor=none;" vertex="1" parent="1">
          <mxGeometry x="123" y="211" width="70" height="30" as="geometry" />
        </mxCell>
        <mxCell id="eKpeVrbS-Dh2D0wG4F8s-2" value="" style="endArrow=none;html=1;rounded=0;entryX=0.5;entryY=0;entryDx=0;entryDy=0;" edge="1" parent="1" source="eKpeVrbS-Dh2D0wG4F8s-3">
          <mxGeometry width="50" height="50" relative="1" as="geometry">
            <mxPoint x="231.65000000000003" y="241.96000000000004" as="sourcePoint" />
            <mxPoint x="232" y="251" as="targetPoint" />
          </mxGeometry>
        </mxCell>
        <mxCell id="eKpeVrbS-Dh2D0wG4F8s-3" value="&lt;font style=&quot;font-size: 9px;&quot;&gt;Tipo_Identificativo&lt;/font&gt;" style="text;html=1;align=center;verticalAlign=middle;resizable=0;points=[];autosize=1;strokeColor=none;fillColor=none;" vertex="1" parent="1">
          <mxGeometry x="176" y="211" width="90" height="30" as="geometry" />
        </mxCell>
        <mxCell id="eKpeVrbS-Dh2D0wG4F8s-6" value="" style="endArrow=none;html=1;rounded=0;entryX=0;entryY=0;entryDx=0;entryDy=0;exitX=1.017;exitY=0.536;exitDx=0;exitDy=0;exitPerimeter=0;" edge="1" parent="1" source="eKpeVrbS-Dh2D0wG4F8s-7" target="7LMpTIWVdaY8dt_LthVV-1">
          <mxGeometry width="50" height="50" relative="1" as="geometry">
            <mxPoint x="161.23000000000002" y="250.73000000000002" as="sourcePoint" />
            <mxPoint x="172.00000000000006" y="251" as="targetPoint" />
          </mxGeometry>
        </mxCell>
        <mxCell id="eKpeVrbS-Dh2D0wG4F8s-7" value="&lt;font style=&quot;font-size: 9px;&quot;&gt;N_Identificativo&lt;/font&gt;" style="text;html=1;align=center;verticalAlign=middle;resizable=0;points=[];autosize=1;strokeColor=none;fillColor=none;" vertex="1" parent="1">
          <mxGeometry x="80" y="235" width="80" height="30" as="geometry" />
        </mxCell>
        <mxCell id="eKpeVrbS-Dh2D0wG4F8s-9" value="" style="endArrow=none;html=1;rounded=0;entryX=0;entryY=0;entryDx=0;entryDy=0;exitX=1.017;exitY=0.536;exitDx=0;exitDy=0;exitPerimeter=0;" edge="1" parent="1" source="eKpeVrbS-Dh2D0wG4F8s-10">
          <mxGeometry width="50" height="50" relative="1" as="geometry">
            <mxPoint x="161.23000000000002" y="271.73" as="sourcePoint" />
            <mxPoint x="172" y="272" as="targetPoint" />
          </mxGeometry>
        </mxCell>
        <mxCell id="eKpeVrbS-Dh2D0wG4F8s-10" value="&lt;font style=&quot;font-size: 9px;&quot;&gt;A_Partenza&lt;/font&gt;" style="text;html=1;align=center;verticalAlign=middle;resizable=0;points=[];autosize=1;strokeColor=none;fillColor=none;" vertex="1" parent="1">
          <mxGeometry x="90" y="256" width="70" height="30" as="geometry" />
        </mxCell>
        <mxCell id="eKpeVrbS-Dh2D0wG4F8s-12" value="" style="endArrow=none;html=1;rounded=0;entryX=0;entryY=0;entryDx=0;entryDy=0;exitX=1.017;exitY=0.536;exitDx=0;exitDy=0;exitPerimeter=0;" edge="1" parent="1" source="eKpeVrbS-Dh2D0wG4F8s-13">
          <mxGeometry width="50" height="50" relative="1" as="geometry">
            <mxPoint x="161.23000000000002" y="296.73" as="sourcePoint" />
            <mxPoint x="172" y="297" as="targetPoint" />
          </mxGeometry>
        </mxCell>
        <mxCell id="eKpeVrbS-Dh2D0wG4F8s-13" value="&lt;font style=&quot;font-size: 9px;&quot;&gt;A_Destinazione&lt;/font&gt;" style="text;html=1;align=center;verticalAlign=middle;resizable=0;points=[];autosize=1;strokeColor=none;fillColor=none;" vertex="1" parent="1">
          <mxGeometry x="85" y="281" width="80" height="30" as="geometry" />
        </mxCell>
        <mxCell id="eKpeVrbS-Dh2D0wG4F8s-14" value="" style="endArrow=none;html=1;rounded=0;entryX=0.5;entryY=0;entryDx=0;entryDy=0;" edge="1" parent="1" source="eKpeVrbS-Dh2D0wG4F8s-15">
          <mxGeometry width="50" height="50" relative="1" as="geometry">
            <mxPoint x="291.6500000000001" y="241.96000000000004" as="sourcePoint" />
            <mxPoint x="292" y="251" as="targetPoint" />
          </mxGeometry>
        </mxCell>
        <mxCell id="eKpeVrbS-Dh2D0wG4F8s-15" value="&lt;font style=&quot;font-size: 9px;&quot;&gt;Motivo_Viaggio&lt;/font&gt;" style="text;html=1;align=center;verticalAlign=middle;resizable=0;points=[];autosize=1;strokeColor=none;fillColor=none;" vertex="1" parent="1">
          <mxGeometry x="252" y="211" width="80" height="30" as="geometry" />
        </mxCell>
        <mxCell id="eKpeVrbS-Dh2D0wG4F8s-16" value="Merce" style="rounded=0;whiteSpace=wrap;html=1;" vertex="1" parent="1">
          <mxGeometry x="535" y="843.5" width="120" height="60" as="geometry" />
        </mxCell>
        <mxCell id="eKpeVrbS-Dh2D0wG4F8s-17" value="" style="endArrow=none;html=1;rounded=0;entryX=1;entryY=1;entryDx=0;entryDy=0;" edge="1" parent="1" source="eKpeVrbS-Dh2D0wG4F8s-18" target="eKpeVrbS-Dh2D0wG4F8s-16">
          <mxGeometry width="50" height="50" relative="1" as="geometry">
            <mxPoint x="655" y="913.5" as="sourcePoint" />
            <mxPoint x="625" y="973.5" as="targetPoint" />
          </mxGeometry>
        </mxCell>
        <mxCell id="eKpeVrbS-Dh2D0wG4F8s-18" value="&lt;font style=&quot;font-size: 9px;&quot;&gt;Id_Merce&lt;/font&gt;" style="text;html=1;align=center;verticalAlign=middle;resizable=0;points=[];autosize=1;strokeColor=none;fillColor=none;" vertex="1" parent="1">
          <mxGeometry x="625" y="912.5" width="60" height="30" as="geometry" />
        </mxCell>
        <mxCell id="eKpeVrbS-Dh2D0wG4F8s-21" value="" style="endArrow=none;html=1;rounded=0;" edge="1" parent="1">
          <mxGeometry width="50" height="50" relative="1" as="geometry">
            <mxPoint x="535" y="912.5" as="sourcePoint" />
            <mxPoint x="535" y="903.5" as="targetPoint" />
          </mxGeometry>
        </mxCell>
        <mxCell id="eKpeVrbS-Dh2D0wG4F8s-22" value="&lt;font style=&quot;font-size: 9px;&quot;&gt;Descrizione&lt;/font&gt;" style="text;html=1;align=center;verticalAlign=middle;resizable=0;points=[];autosize=1;strokeColor=none;fillColor=none;" vertex="1" parent="1">
          <mxGeometry x="500" y="913.5" width="70" height="30" as="geometry" />
        </mxCell>
        <mxCell id="eKpeVrbS-Dh2D0wG4F8s-23" value="" style="endArrow=none;html=1;rounded=0;entryX=0;entryY=0;entryDx=0;entryDy=0;" edge="1" parent="1" source="eKpeVrbS-Dh2D0wG4F8s-24" target="eKpeVrbS-Dh2D0wG4F8s-16">
          <mxGeometry width="50" height="50" relative="1" as="geometry">
            <mxPoint x="560" y="804.5" as="sourcePoint" />
            <mxPoint x="560" y="794.5" as="targetPoint" />
          </mxGeometry>
        </mxCell>
        <mxCell id="eKpeVrbS-Dh2D0wG4F8s-24" value="&lt;font style=&quot;font-size: 9px;&quot;&gt;Note&lt;/font&gt;" style="text;html=1;align=center;verticalAlign=middle;resizable=0;points=[];autosize=1;strokeColor=none;fillColor=none;" vertex="1" parent="1">
          <mxGeometry x="515" y="804.5" width="40" height="30" as="geometry" />
        </mxCell>
        <mxCell id="eKpeVrbS-Dh2D0wG4F8s-33" value="" style="endArrow=none;html=1;rounded=0;entryX=0.5;entryY=0;entryDx=0;entryDy=0;" edge="1" parent="1" source="eKpeVrbS-Dh2D0wG4F8s-34">
          <mxGeometry width="50" height="50" relative="1" as="geometry">
            <mxPoint x="654.6500000000001" y="834.46" as="sourcePoint" />
            <mxPoint x="655" y="843.5" as="targetPoint" />
          </mxGeometry>
        </mxCell>
        <mxCell id="eKpeVrbS-Dh2D0wG4F8s-34" value="&lt;font style=&quot;font-size: 9px;&quot;&gt;QuantitÃ &lt;/font&gt;" style="text;html=1;align=center;verticalAlign=middle;resizable=0;points=[];autosize=1;strokeColor=none;fillColor=none;" vertex="1" parent="1">
          <mxGeometry x="625" y="803.5" width="60" height="30" as="geometry" />
        </mxCell>
        <mxCell id="eKpeVrbS-Dh2D0wG4F8s-54" value="Categoria" style="rounded=0;whiteSpace=wrap;html=1;" vertex="1" parent="1">
          <mxGeometry x="893" y="844" width="120" height="60" as="geometry" />
        </mxCell>
        <mxCell id="eKpeVrbS-Dh2D0wG4F8s-55" value="" style="endArrow=none;html=1;rounded=0;entryX=1;entryY=1;entryDx=0;entryDy=0;" edge="1" parent="1" source="eKpeVrbS-Dh2D0wG4F8s-56" target="eKpeVrbS-Dh2D0wG4F8s-54">
          <mxGeometry width="50" height="50" relative="1" as="geometry">
            <mxPoint x="1013" y="914" as="sourcePoint" />
            <mxPoint x="983" y="974" as="targetPoint" />
          </mxGeometry>
        </mxCell>
        <mxCell id="eKpeVrbS-Dh2D0wG4F8s-56" value="&lt;font style=&quot;font-size: 9px;&quot;&gt;Id_Categoria&lt;/font&gt;" style="text;html=1;align=center;verticalAlign=middle;resizable=0;points=[];autosize=1;strokeColor=none;fillColor=none;" vertex="1" parent="1">
          <mxGeometry x="978" y="913" width="70" height="30" as="geometry" />
        </mxCell>
        <mxCell id="eKpeVrbS-Dh2D0wG4F8s-57" value="" style="endArrow=none;html=1;rounded=0;" edge="1" parent="1" source="eKpeVrbS-Dh2D0wG4F8s-58">
          <mxGeometry width="50" height="50" relative="1" as="geometry">
            <mxPoint x="893" y="914" as="sourcePoint" />
            <mxPoint x="893" y="904" as="targetPoint" />
          </mxGeometry>
        </mxCell>
        <mxCell id="eKpeVrbS-Dh2D0wG4F8s-58" value="&lt;font style=&quot;font-size: 9px;&quot;&gt;Nome&lt;/font&gt;" style="text;html=1;align=center;verticalAlign=middle;resizable=0;points=[];autosize=1;strokeColor=none;fillColor=none;" vertex="1" parent="1">
          <mxGeometry x="868" y="913" width="50" height="30" as="geometry" />
        </mxCell>
        <mxCell id="eKpeVrbS-Dh2D0wG4F8s-59" value="" style="endArrow=none;html=1;rounded=0;entryX=0;entryY=0;entryDx=0;entryDy=0;" edge="1" parent="1" source="eKpeVrbS-Dh2D0wG4F8s-60" target="eKpeVrbS-Dh2D0wG4F8s-54">
          <mxGeometry width="50" height="50" relative="1" as="geometry">
            <mxPoint x="918" y="805" as="sourcePoint" />
            <mxPoint x="918" y="795" as="targetPoint" />
          </mxGeometry>
        </mxCell>
        <mxCell id="eKpeVrbS-Dh2D0wG4F8s-60" value="&lt;font style=&quot;font-size: 9px;&quot;&gt;Descrizione&lt;/font&gt;" style="text;html=1;align=center;verticalAlign=middle;resizable=0;points=[];autosize=1;strokeColor=none;fillColor=none;" vertex="1" parent="1">
          <mxGeometry x="858" y="805" width="70" height="30" as="geometry" />
        </mxCell>
        <mxCell id="eKpeVrbS-Dh2D0wG4F8s-63" value="Controllo" style="rounded=0;whiteSpace=wrap;html=1;" vertex="1" parent="1">
          <mxGeometry x="172" y="524" width="120" height="60" as="geometry" />
        </mxCell>
        <mxCell id="eKpeVrbS-Dh2D0wG4F8s-64" value="" style="endArrow=none;html=1;rounded=0;entryX=1;entryY=1;entryDx=0;entryDy=0;" edge="1" parent="1" source="eKpeVrbS-Dh2D0wG4F8s-65" target="eKpeVrbS-Dh2D0wG4F8s-63">
          <mxGeometry width="50" height="50" relative="1" as="geometry">
            <mxPoint x="292" y="594" as="sourcePoint" />
            <mxPoint x="262" y="654" as="targetPoint" />
          </mxGeometry>
        </mxCell>
        <mxCell id="eKpeVrbS-Dh2D0wG4F8s-65" value="&lt;font style=&quot;font-size: 9px;&quot;&gt;Id_Controllo&lt;/font&gt;" style="text;html=1;align=center;verticalAlign=middle;resizable=0;points=[];autosize=1;strokeColor=none;fillColor=none;" vertex="1" parent="1">
          <mxGeometry x="257" y="593" width="70" height="30" as="geometry" />
        </mxCell>
        <mxCell id="eKpeVrbS-Dh2D0wG4F8s-68" value="" style="endArrow=none;html=1;rounded=0;" edge="1" parent="1" source="eKpeVrbS-Dh2D0wG4F8s-69">
          <mxGeometry width="50" height="50" relative="1" as="geometry">
            <mxPoint x="172" y="594" as="sourcePoint" />
            <mxPoint x="172" y="584" as="targetPoint" />
          </mxGeometry>
        </mxCell>
        <mxCell id="eKpeVrbS-Dh2D0wG4F8s-69" value="&lt;font style=&quot;font-size: 9px;&quot;&gt;Data_Ora_Inizio&lt;/font&gt;" style="text;html=1;align=center;verticalAlign=middle;resizable=0;points=[];autosize=1;strokeColor=none;fillColor=none;" vertex="1" parent="1">
          <mxGeometry x="132" y="593" width="80" height="30" as="geometry" />
        </mxCell>
        <mxCell id="eKpeVrbS-Dh2D0wG4F8s-70" value="" style="endArrow=none;html=1;rounded=0;entryX=0;entryY=0;entryDx=0;entryDy=0;" edge="1" parent="1" source="eKpeVrbS-Dh2D0wG4F8s-71" target="eKpeVrbS-Dh2D0wG4F8s-63">
          <mxGeometry width="50" height="50" relative="1" as="geometry">
            <mxPoint x="197" y="485" as="sourcePoint" />
            <mxPoint x="197" y="475" as="targetPoint" />
          </mxGeometry>
        </mxCell>
        <mxCell id="eKpeVrbS-Dh2D0wG4F8s-71" value="&lt;font style=&quot;font-size: 9px;&quot;&gt;Note&lt;/font&gt;" style="text;html=1;align=center;verticalAlign=middle;resizable=0;points=[];autosize=1;strokeColor=none;fillColor=none;" vertex="1" parent="1">
          <mxGeometry x="152" y="484" width="40" height="30" as="geometry" />
        </mxCell>
        <mxCell id="eKpeVrbS-Dh2D0wG4F8s-74" value="" style="endArrow=none;html=1;rounded=0;entryX=0;entryY=0;entryDx=0;entryDy=0;exitX=1.017;exitY=0.536;exitDx=0;exitDy=0;exitPerimeter=0;" edge="1" parent="1" target="eKpeVrbS-Dh2D0wG4F8s-63">
          <mxGeometry width="50" height="50" relative="1" as="geometry">
            <mxPoint x="161.3599999999999" y="524.0799999999999" as="sourcePoint" />
            <mxPoint x="172" y="524" as="targetPoint" />
          </mxGeometry>
        </mxCell>
        <mxCell id="eKpeVrbS-Dh2D0wG4F8s-75" value="&lt;font style=&quot;font-size: 9px;&quot;&gt;Data_Ora_Fine&lt;/font&gt;" style="text;html=1;align=center;verticalAlign=middle;resizable=0;points=[];autosize=1;strokeColor=none;fillColor=none;" vertex="1" parent="1">
          <mxGeometry x="80" y="507" width="80" height="30" as="geometry" />
        </mxCell>
        <mxCell id="eKpeVrbS-Dh2D0wG4F8s-80" value="" style="endArrow=none;html=1;rounded=0;entryX=0.5;entryY=0;entryDx=0;entryDy=0;" edge="1" parent="1" source="eKpeVrbS-Dh2D0wG4F8s-81">
          <mxGeometry width="50" height="50" relative="1" as="geometry">
            <mxPoint x="291.6500000000001" y="514.96" as="sourcePoint" />
            <mxPoint x="292" y="524" as="targetPoint" />
          </mxGeometry>
        </mxCell>
        <mxCell id="eKpeVrbS-Dh2D0wG4F8s-81" value="&lt;font style=&quot;font-size: 9px;&quot;&gt;Dazio_Doganale&lt;/font&gt;" style="text;html=1;align=center;verticalAlign=middle;resizable=0;points=[];autosize=1;strokeColor=none;fillColor=none;" vertex="1" parent="1">
          <mxGeometry x="247" y="484" width="90" height="30" as="geometry" />
        </mxCell>
        <mxCell id="eKpeVrbS-Dh2D0wG4F8s-82" value="Addetto" style="rounded=0;whiteSpace=wrap;html=1;" vertex="1" parent="1">
          <mxGeometry x="534" y="435.5" width="120" height="60" as="geometry" />
        </mxCell>
        <mxCell id="eKpeVrbS-Dh2D0wG4F8s-83" value="" style="endArrow=none;html=1;rounded=0;entryX=1;entryY=1;entryDx=0;entryDy=0;" edge="1" parent="1" source="eKpeVrbS-Dh2D0wG4F8s-84" target="eKpeVrbS-Dh2D0wG4F8s-82">
          <mxGeometry width="50" height="50" relative="1" as="geometry">
            <mxPoint x="654" y="505.5" as="sourcePoint" />
            <mxPoint x="624" y="565.5" as="targetPoint" />
          </mxGeometry>
        </mxCell>
        <mxCell id="eKpeVrbS-Dh2D0wG4F8s-84" value="&lt;font style=&quot;font-size: 9px;&quot;&gt;Id_Addetto&lt;/font&gt;" style="text;html=1;align=center;verticalAlign=middle;resizable=0;points=[];autosize=1;strokeColor=none;fillColor=none;" vertex="1" parent="1">
          <mxGeometry x="619" y="504.5" width="70" height="30" as="geometry" />
        </mxCell>
        <mxCell id="eKpeVrbS-Dh2D0wG4F8s-85" value="" style="endArrow=none;html=1;rounded=0;entryX=1;entryY=1;entryDx=0;entryDy=0;" edge="1" parent="1" source="eKpeVrbS-Dh2D0wG4F8s-86" target="eKpeVrbS-Dh2D0wG4F8s-82">
          <mxGeometry width="50" height="50" relative="1" as="geometry">
            <mxPoint x="696" y="448.75" as="sourcePoint" />
            <mxPoint x="661" y="483.25" as="targetPoint" />
          </mxGeometry>
        </mxCell>
        <mxCell id="eKpeVrbS-Dh2D0wG4F8s-86" value="&lt;font style=&quot;font-size: 9px;&quot;&gt;Nome&lt;/font&gt;" style="text;html=1;align=center;verticalAlign=middle;resizable=0;points=[];autosize=1;strokeColor=none;fillColor=none;" vertex="1" parent="1">
          <mxGeometry x="664" y="480" width="50" height="30" as="geometry" />
        </mxCell>
        <mxCell id="eKpeVrbS-Dh2D0wG4F8s-87" value="" style="endArrow=none;html=1;rounded=0;" edge="1" parent="1" source="eKpeVrbS-Dh2D0wG4F8s-88">
          <mxGeometry width="50" height="50" relative="1" as="geometry">
            <mxPoint x="534" y="505.5" as="sourcePoint" />
            <mxPoint x="534" y="495.5" as="targetPoint" />
          </mxGeometry>
        </mxCell>
        <mxCell id="eKpeVrbS-Dh2D0wG4F8s-88" value="&lt;font style=&quot;font-size: 9px;&quot;&gt;Cognome&lt;/font&gt;" style="text;html=1;align=center;verticalAlign=middle;resizable=0;points=[];autosize=1;strokeColor=none;fillColor=none;" vertex="1" parent="1">
          <mxGeometry x="504" y="504.5" width="60" height="30" as="geometry" />
        </mxCell>
        <mxCell id="eKpeVrbS-Dh2D0wG4F8s-89" value="" style="endArrow=none;html=1;rounded=0;entryX=0;entryY=0;entryDx=0;entryDy=0;" edge="1" parent="1" source="eKpeVrbS-Dh2D0wG4F8s-90" target="eKpeVrbS-Dh2D0wG4F8s-82">
          <mxGeometry width="50" height="50" relative="1" as="geometry">
            <mxPoint x="559" y="396.5" as="sourcePoint" />
            <mxPoint x="559" y="386.5" as="targetPoint" />
          </mxGeometry>
        </mxCell>
        <mxCell id="eKpeVrbS-Dh2D0wG4F8s-90" value="&lt;font style=&quot;font-size: 9px;&quot;&gt;Data_Ora_Login&lt;/font&gt;" style="text;html=1;align=center;verticalAlign=middle;resizable=0;points=[];autosize=1;strokeColor=none;fillColor=none;" vertex="1" parent="1">
          <mxGeometry x="489" y="395" width="90" height="30" as="geometry" />
        </mxCell>
        <mxCell id="eKpeVrbS-Dh2D0wG4F8s-93" value="" style="endArrow=none;html=1;rounded=0;entryX=0;entryY=0;entryDx=0;entryDy=0;exitX=1.017;exitY=0.536;exitDx=0;exitDy=0;exitPerimeter=0;" edge="1" parent="1" source="eKpeVrbS-Dh2D0wG4F8s-94" target="eKpeVrbS-Dh2D0wG4F8s-82">
          <mxGeometry width="50" height="50" relative="1" as="geometry">
            <mxPoint x="523.23" y="435.23" as="sourcePoint" />
            <mxPoint x="534" y="435.5" as="targetPoint" />
          </mxGeometry>
        </mxCell>
        <mxCell id="eKpeVrbS-Dh2D0wG4F8s-94" value="&lt;font style=&quot;font-size: 9px;&quot;&gt;Username&lt;/font&gt;" style="text;html=1;align=center;verticalAlign=middle;resizable=0;points=[];autosize=1;strokeColor=none;fillColor=none;" vertex="1" parent="1">
          <mxGeometry x="452" y="419.5" width="60" height="30" as="geometry" />
        </mxCell>
        <mxCell id="eKpeVrbS-Dh2D0wG4F8s-95" value="" style="endArrow=none;html=1;rounded=0;entryX=0;entryY=1;entryDx=0;entryDy=0;exitX=1.017;exitY=0.536;exitDx=0;exitDy=0;exitPerimeter=0;" edge="1" parent="1" source="eKpeVrbS-Dh2D0wG4F8s-96" target="eKpeVrbS-Dh2D0wG4F8s-82">
          <mxGeometry width="50" height="50" relative="1" as="geometry">
            <mxPoint x="523.23" y="456.23" as="sourcePoint" />
            <mxPoint x="534" y="456.5" as="targetPoint" />
          </mxGeometry>
        </mxCell>
        <mxCell id="eKpeVrbS-Dh2D0wG4F8s-96" value="&lt;font style=&quot;font-size: 9px;&quot;&gt;Password&lt;/font&gt;" style="text;html=1;align=center;verticalAlign=middle;resizable=0;points=[];autosize=1;strokeColor=none;fillColor=none;" vertex="1" parent="1">
          <mxGeometry x="453" y="479.5" width="60" height="30" as="geometry" />
        </mxCell>
        <mxCell id="eKpeVrbS-Dh2D0wG4F8s-99" value="" style="endArrow=none;html=1;rounded=0;entryX=0.5;entryY=0;entryDx=0;entryDy=0;" edge="1" parent="1" source="eKpeVrbS-Dh2D0wG4F8s-100">
          <mxGeometry width="50" height="50" relative="1" as="geometry">
            <mxPoint x="653.6500000000001" y="426.46000000000004" as="sourcePoint" />
            <mxPoint x="654" y="435.5" as="targetPoint" />
          </mxGeometry>
        </mxCell>
        <mxCell id="eKpeVrbS-Dh2D0wG4F8s-100" value="&lt;font style=&quot;font-size: 9px;&quot;&gt;Ruolo&lt;/font&gt;" style="text;html=1;align=center;verticalAlign=middle;resizable=0;points=[];autosize=1;strokeColor=none;fillColor=none;" vertex="1" parent="1">
          <mxGeometry x="629" y="395.5" width="50" height="30" as="geometry" />
        </mxCell>
        <mxCell id="eKpeVrbS-Dh2D0wG4F8s-102" value="Funzionario" style="rounded=0;whiteSpace=wrap;html=1;" vertex="1" parent="1">
          <mxGeometry x="535" y="625.5" width="120" height="60" as="geometry" />
        </mxCell>
        <mxCell id="eKpeVrbS-Dh2D0wG4F8s-103" value="" style="endArrow=none;html=1;rounded=0;entryX=1;entryY=1;entryDx=0;entryDy=0;" edge="1" parent="1" source="eKpeVrbS-Dh2D0wG4F8s-104" target="eKpeVrbS-Dh2D0wG4F8s-102">
          <mxGeometry width="50" height="50" relative="1" as="geometry">
            <mxPoint x="655" y="695.5" as="sourcePoint" />
            <mxPoint x="625" y="755.5" as="targetPoint" />
          </mxGeometry>
        </mxCell>
        <mxCell id="eKpeVrbS-Dh2D0wG4F8s-104" value="&lt;font style=&quot;font-size: 9px;&quot;&gt;Id_Funzionario&lt;/font&gt;" style="text;html=1;align=center;verticalAlign=middle;resizable=0;points=[];autosize=1;strokeColor=none;fillColor=none;" vertex="1" parent="1">
          <mxGeometry x="615" y="694.5" width="80" height="30" as="geometry" />
        </mxCell>
        <mxCell id="eKpeVrbS-Dh2D0wG4F8s-105" value="" style="endArrow=none;html=1;rounded=0;" edge="1" parent="1" source="eKpeVrbS-Dh2D0wG4F8s-106" target="eKpeVrbS-Dh2D0wG4F8s-102">
          <mxGeometry width="50" height="50" relative="1" as="geometry">
            <mxPoint x="595" y="695.5" as="sourcePoint" />
            <mxPoint x="595" y="685.5" as="targetPoint" />
          </mxGeometry>
        </mxCell>
        <mxCell id="eKpeVrbS-Dh2D0wG4F8s-106" value="&lt;font style=&quot;font-size: 9px;&quot;&gt;Nome&lt;/font&gt;" style="text;html=1;align=center;verticalAlign=middle;resizable=0;points=[];autosize=1;strokeColor=none;fillColor=none;" vertex="1" parent="1">
          <mxGeometry x="570" y="694.5" width="50" height="30" as="geometry" />
        </mxCell>
        <mxCell id="eKpeVrbS-Dh2D0wG4F8s-107" value="" style="endArrow=none;html=1;rounded=0;" edge="1" parent="1" source="eKpeVrbS-Dh2D0wG4F8s-108">
          <mxGeometry width="50" height="50" relative="1" as="geometry">
            <mxPoint x="535" y="695.5" as="sourcePoint" />
            <mxPoint x="535" y="685.5" as="targetPoint" />
          </mxGeometry>
        </mxCell>
        <mxCell id="eKpeVrbS-Dh2D0wG4F8s-108" value="&lt;font style=&quot;font-size: 9px;&quot;&gt;Cognome&lt;/font&gt;" style="text;html=1;align=center;verticalAlign=middle;resizable=0;points=[];autosize=1;strokeColor=none;fillColor=none;" vertex="1" parent="1">
          <mxGeometry x="505" y="694.5" width="60" height="30" as="geometry" />
        </mxCell>
        <mxCell id="eKpeVrbS-Dh2D0wG4F8s-109" value="" style="endArrow=none;html=1;rounded=0;entryX=0;entryY=0;entryDx=0;entryDy=0;" edge="1" parent="1" source="eKpeVrbS-Dh2D0wG4F8s-110" target="eKpeVrbS-Dh2D0wG4F8s-102">
          <mxGeometry width="50" height="50" relative="1" as="geometry">
            <mxPoint x="560" y="586.5" as="sourcePoint" />
            <mxPoint x="560" y="576.5" as="targetPoint" />
          </mxGeometry>
        </mxCell>
        <mxCell id="eKpeVrbS-Dh2D0wG4F8s-110" value="&lt;font style=&quot;font-size: 9px;&quot;&gt;Data_Ora_Login&lt;/font&gt;" style="text;html=1;align=center;verticalAlign=middle;resizable=0;points=[];autosize=1;strokeColor=none;fillColor=none;" vertex="1" parent="1">
          <mxGeometry x="490" y="585" width="90" height="30" as="geometry" />
        </mxCell>
        <mxCell id="eKpeVrbS-Dh2D0wG4F8s-111" value="" style="endArrow=none;html=1;rounded=0;entryX=0;entryY=0;entryDx=0;entryDy=0;exitX=1.017;exitY=0.536;exitDx=0;exitDy=0;exitPerimeter=0;" edge="1" parent="1" source="eKpeVrbS-Dh2D0wG4F8s-112" target="eKpeVrbS-Dh2D0wG4F8s-102">
          <mxGeometry width="50" height="50" relative="1" as="geometry">
            <mxPoint x="524.23" y="625.23" as="sourcePoint" />
            <mxPoint x="535" y="625.5" as="targetPoint" />
          </mxGeometry>
        </mxCell>
        <mxCell id="eKpeVrbS-Dh2D0wG4F8s-112" value="&lt;font style=&quot;font-size: 9px;&quot;&gt;Username&lt;/font&gt;" style="text;html=1;align=center;verticalAlign=middle;resizable=0;points=[];autosize=1;strokeColor=none;fillColor=none;" vertex="1" parent="1">
          <mxGeometry x="453" y="609.5" width="60" height="30" as="geometry" />
        </mxCell>
        <mxCell id="eKpeVrbS-Dh2D0wG4F8s-113" value="" style="endArrow=none;html=1;rounded=0;entryX=0;entryY=1;entryDx=0;entryDy=0;exitX=1.017;exitY=0.536;exitDx=0;exitDy=0;exitPerimeter=0;" edge="1" parent="1" source="eKpeVrbS-Dh2D0wG4F8s-114" target="eKpeVrbS-Dh2D0wG4F8s-102">
          <mxGeometry width="50" height="50" relative="1" as="geometry">
            <mxPoint x="524.23" y="646.23" as="sourcePoint" />
            <mxPoint x="535" y="646.5" as="targetPoint" />
          </mxGeometry>
        </mxCell>
        <mxCell id="eKpeVrbS-Dh2D0wG4F8s-114" value="&lt;font style=&quot;font-size: 9px;&quot;&gt;Password&lt;/font&gt;" style="text;html=1;align=center;verticalAlign=middle;resizable=0;points=[];autosize=1;strokeColor=none;fillColor=none;" vertex="1" parent="1">
          <mxGeometry x="454" y="669.5" width="60" height="30" as="geometry" />
        </mxCell>
        <mxCell id="eKpeVrbS-Dh2D0wG4F8s-115" value="" style="endArrow=none;html=1;rounded=0;entryX=0.5;entryY=0;entryDx=0;entryDy=0;" edge="1" parent="1" source="eKpeVrbS-Dh2D0wG4F8s-116">
          <mxGeometry width="50" height="50" relative="1" as="geometry">
            <mxPoint x="654.6500000000001" y="616.46" as="sourcePoint" />
            <mxPoint x="655" y="625.5" as="targetPoint" />
          </mxGeometry>
        </mxCell>
        <mxCell id="eKpeVrbS-Dh2D0wG4F8s-116" value="&lt;font style=&quot;font-size: 9px;&quot;&gt;Ruolo&lt;/font&gt;" style="text;html=1;align=center;verticalAlign=middle;resizable=0;points=[];autosize=1;strokeColor=none;fillColor=none;" vertex="1" parent="1">
          <mxGeometry x="630" y="585.5" width="50" height="30" as="geometry" />
        </mxCell>
        <mxCell id="eKpeVrbS-Dh2D0wG4F8s-123" value="Esito" style="rounded=0;whiteSpace=wrap;html=1;" vertex="1" parent="1">
          <mxGeometry x="172" y="792" width="120" height="60" as="geometry" />
        </mxCell>
        <mxCell id="eKpeVrbS-Dh2D0wG4F8s-124" value="" style="endArrow=none;html=1;rounded=0;entryX=1;entryY=1;entryDx=0;entryDy=0;" edge="1" parent="1" source="eKpeVrbS-Dh2D0wG4F8s-125" target="eKpeVrbS-Dh2D0wG4F8s-123">
          <mxGeometry width="50" height="50" relative="1" as="geometry">
            <mxPoint x="291" y="862" as="sourcePoint" />
            <mxPoint x="261" y="922" as="targetPoint" />
          </mxGeometry>
        </mxCell>
        <mxCell id="eKpeVrbS-Dh2D0wG4F8s-125" value="&lt;font style=&quot;font-size: 9px;&quot;&gt;Id_Esito&lt;/font&gt;" style="text;html=1;align=center;verticalAlign=middle;resizable=0;points=[];autosize=1;strokeColor=none;fillColor=none;" vertex="1" parent="1">
          <mxGeometry x="266" y="861" width="50" height="30" as="geometry" />
        </mxCell>
        <mxCell id="eKpeVrbS-Dh2D0wG4F8s-128" value="" style="endArrow=none;html=1;rounded=0;entryX=0;entryY=0;entryDx=0;entryDy=0;" edge="1" parent="1" source="eKpeVrbS-Dh2D0wG4F8s-129" target="eKpeVrbS-Dh2D0wG4F8s-123">
          <mxGeometry width="50" height="50" relative="1" as="geometry">
            <mxPoint x="196" y="753" as="sourcePoint" />
            <mxPoint x="196" y="743" as="targetPoint" />
          </mxGeometry>
        </mxCell>
        <mxCell id="eKpeVrbS-Dh2D0wG4F8s-129" value="&lt;font style=&quot;font-size: 9px;&quot;&gt;Descrizione&lt;/font&gt;" style="text;html=1;align=center;verticalAlign=middle;resizable=0;points=[];autosize=1;strokeColor=none;fillColor=none;" vertex="1" parent="1">
          <mxGeometry x="136" y="753" width="70" height="30" as="geometry" />
        </mxCell>
        <mxCell id="eKpeVrbS-Dh2D0wG4F8s-130" value="Punto_controllo" style="rounded=0;whiteSpace=wrap;html=1;" vertex="1" parent="1">
          <mxGeometry x="852" y="533" width="120" height="60" as="geometry" />
        </mxCell>
        <mxCell id="eKpeVrbS-Dh2D0wG4F8s-131" value="" style="endArrow=none;html=1;rounded=0;entryX=1;entryY=1;entryDx=0;entryDy=0;" edge="1" parent="1" source="eKpeVrbS-Dh2D0wG4F8s-132" target="eKpeVrbS-Dh2D0wG4F8s-130">
          <mxGeometry width="50" height="50" relative="1" as="geometry">
            <mxPoint x="972" y="603" as="sourcePoint" />
            <mxPoint x="942" y="663" as="targetPoint" />
          </mxGeometry>
        </mxCell>
        <mxCell id="eKpeVrbS-Dh2D0wG4F8s-132" value="&lt;font style=&quot;font-size: 9px;&quot;&gt;Id_Punto_Controllo&lt;/font&gt;" style="text;html=1;align=center;verticalAlign=middle;resizable=0;points=[];autosize=1;strokeColor=none;fillColor=none;" vertex="1" parent="1">
          <mxGeometry x="927" y="602" width="90" height="30" as="geometry" />
        </mxCell>
        <mxCell id="eKpeVrbS-Dh2D0wG4F8s-133" value="" style="endArrow=none;html=1;rounded=0;" edge="1" parent="1" source="eKpeVrbS-Dh2D0wG4F8s-134">
          <mxGeometry width="50" height="50" relative="1" as="geometry">
            <mxPoint x="852" y="603" as="sourcePoint" />
            <mxPoint x="852" y="593" as="targetPoint" />
          </mxGeometry>
        </mxCell>
        <mxCell id="eKpeVrbS-Dh2D0wG4F8s-134" value="&lt;font style=&quot;font-size: 9px;&quot;&gt;Descrizione&lt;/font&gt;" style="text;html=1;align=center;verticalAlign=middle;resizable=0;points=[];autosize=1;strokeColor=none;fillColor=none;" vertex="1" parent="1">
          <mxGeometry x="817" y="602" width="70" height="30" as="geometry" />
        </mxCell>
        <mxCell id="eKpeVrbS-Dh2D0wG4F8s-135" value="" style="endArrow=none;html=1;rounded=0;entryX=0;entryY=0;entryDx=0;entryDy=0;" edge="1" parent="1" source="eKpeVrbS-Dh2D0wG4F8s-136" target="eKpeVrbS-Dh2D0wG4F8s-130">
          <mxGeometry width="50" height="50" relative="1" as="geometry">
            <mxPoint x="877" y="494" as="sourcePoint" />
            <mxPoint x="877" y="484" as="targetPoint" />
          </mxGeometry>
        </mxCell>
        <mxCell id="eKpeVrbS-Dh2D0wG4F8s-136" value="&lt;font style=&quot;font-size: 9px;&quot;&gt;Nome&lt;/font&gt;" style="text;html=1;align=center;verticalAlign=middle;resizable=0;points=[];autosize=1;strokeColor=none;fillColor=none;" vertex="1" parent="1">
          <mxGeometry x="827" y="494" width="50" height="30" as="geometry" />
        </mxCell>
        <mxCell id="eKpeVrbS-Dh2D0wG4F8s-137" value="" style="endArrow=none;html=1;rounded=0;entryX=0.5;entryY=0;entryDx=0;entryDy=0;" edge="1" parent="1" source="eKpeVrbS-Dh2D0wG4F8s-138">
          <mxGeometry width="50" height="50" relative="1" as="geometry">
            <mxPoint x="971.6500000000001" y="523.96" as="sourcePoint" />
            <mxPoint x="972" y="533" as="targetPoint" />
          </mxGeometry>
        </mxCell>
        <mxCell id="eKpeVrbS-Dh2D0wG4F8s-138" value="&lt;font style=&quot;font-size: 9px;&quot;&gt;Tipo&lt;/font&gt;" style="text;html=1;align=center;verticalAlign=middle;resizable=0;points=[];autosize=1;strokeColor=none;fillColor=none;" vertex="1" parent="1">
          <mxGeometry x="952" y="493" width="40" height="30" as="geometry" />
        </mxCell>
        <mxCell id="eKpeVrbS-Dh2D0wG4F8s-29" value="" style="endArrow=none;html=1;rounded=0;entryX=0.5;entryY=1;entryDx=0;entryDy=0;exitX=0.5;exitY=0;exitDx=0;exitDy=0;" edge="1" parent="1" source="eKpeVrbS-Dh2D0wG4F8s-32" target="7LMpTIWVdaY8dt_LthVV-1">
          <mxGeometry width="50" height="50" relative="1" as="geometry">
            <mxPoint x="232" y="381" as="sourcePoint" />
            <mxPoint x="232" y="401" as="targetPoint" />
          </mxGeometry>
        </mxCell>
        <mxCell id="eKpeVrbS-Dh2D0wG4F8s-30" value="" style="endArrow=none;html=1;rounded=0;entryX=1;entryY=0;entryDx=0;entryDy=0;" edge="1" parent="1" source="eKpeVrbS-Dh2D0wG4F8s-31" target="7LMpTIWVdaY8dt_LthVV-1">
          <mxGeometry width="50" height="50" relative="1" as="geometry">
            <mxPoint x="347" y="252" as="sourcePoint" />
            <mxPoint x="347" y="242" as="targetPoint" />
          </mxGeometry>
        </mxCell>
        <mxCell id="eKpeVrbS-Dh2D0wG4F8s-31" value="&lt;font style=&quot;font-size: 9px;&quot;&gt;Nome&lt;/font&gt;" style="text;html=1;align=center;verticalAlign=middle;resizable=0;points=[];autosize=1;strokeColor=none;fillColor=none;" vertex="1" parent="1">
          <mxGeometry x="304" y="235.5" width="50" height="30" as="geometry" />
        </mxCell>
        <mxCell id="eKpeVrbS-Dh2D0wG4F8s-32" value="Effettua" style="rhombus;whiteSpace=wrap;html=1;" vertex="1" parent="1">
          <mxGeometry x="182" y="386" width="100" height="50" as="geometry" />
        </mxCell>
        <mxCell id="eKpeVrbS-Dh2D0wG4F8s-35" value="" style="endArrow=none;html=1;rounded=0;entryX=0.5;entryY=1;entryDx=0;entryDy=0;exitX=0.5;exitY=0;exitDx=0;exitDy=0;" edge="1" parent="1" source="eKpeVrbS-Dh2D0wG4F8s-63" target="eKpeVrbS-Dh2D0wG4F8s-32">
          <mxGeometry width="50" height="50" relative="1" as="geometry">
            <mxPoint x="152" y="531" as="sourcePoint" />
            <mxPoint x="202" y="481" as="targetPoint" />
          </mxGeometry>
        </mxCell>
        <mxCell id="eKpeVrbS-Dh2D0wG4F8s-36" value="" style="endArrow=none;html=1;rounded=0;entryX=0;entryY=0.5;entryDx=0;entryDy=0;" edge="1" parent="1" source="eKpeVrbS-Dh2D0wG4F8s-37" target="eKpeVrbS-Dh2D0wG4F8s-82">
          <mxGeometry width="50" height="50" relative="1" as="geometry">
            <mxPoint x="422" y="466" as="sourcePoint" />
            <mxPoint x="392" y="491" as="targetPoint" />
          </mxGeometry>
        </mxCell>
        <mxCell id="eKpeVrbS-Dh2D0wG4F8s-37" value="Esegue" style="rhombus;whiteSpace=wrap;html=1;" vertex="1" parent="1">
          <mxGeometry x="354" y="440.5" width="80" height="50" as="geometry" />
        </mxCell>
        <mxCell id="eKpeVrbS-Dh2D0wG4F8s-40" value="" style="endArrow=none;html=1;rounded=0;exitX=1;exitY=0.25;exitDx=0;exitDy=0;entryX=0.5;entryY=1;entryDx=0;entryDy=0;" edge="1" parent="1">
          <mxGeometry width="50" height="50" relative="1" as="geometry">
            <mxPoint x="292" y="539.4200000000001" as="sourcePoint" />
            <mxPoint x="394" y="490.5" as="targetPoint" />
            <Array as="points">
              <mxPoint x="394" y="540" />
            </Array>
          </mxGeometry>
        </mxCell>
        <mxCell id="eKpeVrbS-Dh2D0wG4F8s-44" value="" style="endArrow=none;html=1;rounded=0;entryX=0;entryY=0.5;entryDx=0;entryDy=0;" edge="1" parent="1" source="eKpeVrbS-Dh2D0wG4F8s-45" target="eKpeVrbS-Dh2D0wG4F8s-102">
          <mxGeometry width="50" height="50" relative="1" as="geometry">
            <mxPoint x="421" y="656.5" as="sourcePoint" />
            <mxPoint x="533" y="656.5" as="targetPoint" />
          </mxGeometry>
        </mxCell>
        <mxCell id="eKpeVrbS-Dh2D0wG4F8s-45" value="&lt;font&gt;Supervisiona&lt;/font&gt;" style="rhombus;whiteSpace=wrap;html=1;fontSize=12;" vertex="1" parent="1">
          <mxGeometry x="354" y="630.5" width="79.9211" height="50" as="geometry" />
        </mxCell>
        <mxCell id="eKpeVrbS-Dh2D0wG4F8s-46" value="" style="endArrow=none;html=1;rounded=0;exitX=1;exitY=0.25;exitDx=0;exitDy=0;entryX=0.5;entryY=0;entryDx=0;entryDy=0;" edge="1" parent="1" target="eKpeVrbS-Dh2D0wG4F8s-45">
          <mxGeometry width="50" height="50" relative="1" as="geometry">
            <mxPoint x="292" y="563.5800000000004" as="sourcePoint" />
            <mxPoint x="394" y="612.5000000000005" as="targetPoint" />
            <Array as="points">
              <mxPoint x="394" y="563.0000000000005" />
            </Array>
          </mxGeometry>
        </mxCell>
        <mxCell id="eKpeVrbS-Dh2D0wG4F8s-47" value="" style="endArrow=none;html=1;rounded=0;entryX=0.5;entryY=1;entryDx=0;entryDy=0;exitX=0.5;exitY=0;exitDx=0;exitDy=0;" edge="1" parent="1" source="eKpeVrbS-Dh2D0wG4F8s-48" target="eKpeVrbS-Dh2D0wG4F8s-63">
          <mxGeometry width="50" height="50" relative="1" as="geometry">
            <mxPoint x="228" y="655" as="sourcePoint" />
            <mxPoint x="228" y="585" as="targetPoint" />
          </mxGeometry>
        </mxCell>
        <mxCell id="eKpeVrbS-Dh2D0wG4F8s-48" value="Risulta" style="rhombus;whiteSpace=wrap;html=1;" vertex="1" parent="1">
          <mxGeometry x="182" y="660" width="100" height="50" as="geometry" />
        </mxCell>
        <mxCell id="eKpeVrbS-Dh2D0wG4F8s-49" value="" style="endArrow=none;html=1;rounded=0;entryX=0.5;entryY=1;entryDx=0;entryDy=0;exitX=0.5;exitY=0;exitDx=0;exitDy=0;" edge="1" parent="1" target="eKpeVrbS-Dh2D0wG4F8s-48" source="eKpeVrbS-Dh2D0wG4F8s-123">
          <mxGeometry width="50" height="50" relative="1" as="geometry">
            <mxPoint x="228" y="798" as="sourcePoint" />
            <mxPoint x="198" y="755" as="targetPoint" />
          </mxGeometry>
        </mxCell>
        <mxCell id="eKpeVrbS-Dh2D0wG4F8s-50" value="" style="endArrow=none;html=1;rounded=0;entryX=0.75;entryY=1;entryDx=0;entryDy=0;exitX=0.5;exitY=0;exitDx=0;exitDy=0;" edge="1" parent="1">
          <mxGeometry width="50" height="50" relative="1" as="geometry">
            <mxPoint x="425.96055" y="848" as="sourcePoint" />
            <mxPoint x="262" y="584" as="targetPoint" />
            <Array as="points">
              <mxPoint x="426" y="813" />
              <mxPoint x="359" y="812" />
              <mxPoint x="359" y="713" />
              <mxPoint x="315" y="713" />
              <mxPoint x="315" y="633" />
              <mxPoint x="262" y="633" />
            </Array>
          </mxGeometry>
        </mxCell>
        <mxCell id="eKpeVrbS-Dh2D0wG4F8s-51" value="Sulla" style="rhombus;whiteSpace=wrap;html=1;fontSize=12;" vertex="1" parent="1">
          <mxGeometry x="386" y="848" width="79.9211" height="50" as="geometry" />
        </mxCell>
        <mxCell id="eKpeVrbS-Dh2D0wG4F8s-52" value="" style="endArrow=none;html=1;rounded=0;entryX=0;entryY=0.5;entryDx=0;entryDy=0;exitX=1;exitY=0.5;exitDx=0;exitDy=0;" edge="1" parent="1" source="eKpeVrbS-Dh2D0wG4F8s-51" target="eKpeVrbS-Dh2D0wG4F8s-16">
          <mxGeometry width="50" height="50" relative="1" as="geometry">
            <mxPoint x="413" y="940" as="sourcePoint" />
            <mxPoint x="463" y="890" as="targetPoint" />
          </mxGeometry>
        </mxCell>
        <mxCell id="eKpeVrbS-Dh2D0wG4F8s-53" value="" style="endArrow=none;html=1;rounded=0;exitX=1;exitY=0.5;exitDx=0;exitDy=0;" edge="1" parent="1" source="eKpeVrbS-Dh2D0wG4F8s-16" target="eKpeVrbS-Dh2D0wG4F8s-61">
          <mxGeometry width="50" height="50" relative="1" as="geometry">
            <mxPoint x="669" y="1018" as="sourcePoint" />
            <mxPoint x="733" y="874" as="targetPoint" />
          </mxGeometry>
        </mxCell>
        <mxCell id="eKpeVrbS-Dh2D0wG4F8s-61" value="Fa parte" style="rhombus;whiteSpace=wrap;html=1;" vertex="1" parent="1">
          <mxGeometry x="721" y="854" width="80" height="41" as="geometry" />
        </mxCell>
        <mxCell id="eKpeVrbS-Dh2D0wG4F8s-62" value="" style="endArrow=none;html=1;rounded=0;exitX=1;exitY=0.5;exitDx=0;exitDy=0;entryX=0;entryY=0.5;entryDx=0;entryDy=0;" edge="1" parent="1" source="eKpeVrbS-Dh2D0wG4F8s-61" target="eKpeVrbS-Dh2D0wG4F8s-54">
          <mxGeometry width="50" height="50" relative="1" as="geometry">
            <mxPoint x="802" y="886" as="sourcePoint" />
            <mxPoint x="852" y="836" as="targetPoint" />
          </mxGeometry>
        </mxCell>
        <mxCell id="eKpeVrbS-Dh2D0wG4F8s-66" value="" style="endArrow=none;html=1;rounded=0;entryX=0;entryY=0.5;entryDx=0;entryDy=0;exitX=1;exitY=0.5;exitDx=0;exitDy=0;" edge="1" parent="1" source="eKpeVrbS-Dh2D0wG4F8s-67" target="eKpeVrbS-Dh2D0wG4F8s-130">
          <mxGeometry width="50" height="50" relative="1" as="geometry">
            <mxPoint x="785" y="563" as="sourcePoint" />
            <mxPoint x="835" y="550" as="targetPoint" />
            <Array as="points">
              <mxPoint x="786" y="564" />
            </Array>
          </mxGeometry>
        </mxCell>
        <mxCell id="eKpeVrbS-Dh2D0wG4F8s-67" value="Effettuato in" style="rhombus;whiteSpace=wrap;html=1;" vertex="1" parent="1">
          <mxGeometry x="706" y="532" width="80" height="41" as="geometry" />
        </mxCell>
        <mxCell id="eKpeVrbS-Dh2D0wG4F8s-72" value="" style="endArrow=none;html=1;rounded=0;entryX=0;entryY=0.5;entryDx=0;entryDy=0;exitX=1;exitY=0.75;exitDx=0;exitDy=0;" edge="1" parent="1" source="eKpeVrbS-Dh2D0wG4F8s-63" target="eKpeVrbS-Dh2D0wG4F8s-67">
          <mxGeometry width="50" height="50" relative="1" as="geometry">
            <mxPoint x="294" y="555" as="sourcePoint" />
            <mxPoint x="632" y="564" as="targetPoint" />
            <Array as="points">
              <mxPoint x="334" y="569" />
              <mxPoint x="333" y="651" />
              <mxPoint x="333" y="701" />
              <mxPoint x="380" y="701" />
              <mxPoint x="380" y="741" />
              <mxPoint x="706" y="741" />
            </Array>
          </mxGeometry>
        </mxCell>
        <mxCell id="eKpeVrbS-Dh2D0wG4F8s-73" value="N" style="text;html=1;align=center;verticalAlign=middle;resizable=0;points=[];autosize=1;strokeColor=none;fillColor=none;" vertex="1" parent="1">
          <mxGeometry x="208" y="501" width="27" height="27" as="geometry" />
        </mxCell>
        <mxCell id="eKpeVrbS-Dh2D0wG4F8s-76" value="1" style="text;html=1;align=center;verticalAlign=middle;resizable=0;points=[];autosize=1;strokeColor=none;fillColor=none;" vertex="1" parent="1">
          <mxGeometry x="209" y="308" width="25" height="27" as="geometry" />
        </mxCell>
        <mxCell id="eKpeVrbS-Dh2D0wG4F8s-77" value="N" style="text;html=1;align=center;verticalAlign=middle;resizable=0;points=[];autosize=1;strokeColor=none;fillColor=none;" vertex="1" parent="1">
          <mxGeometry x="232" y="768" width="27" height="27" as="geometry" />
        </mxCell>
        <mxCell id="eKpeVrbS-Dh2D0wG4F8s-78" value="1" style="text;html=1;align=center;verticalAlign=middle;resizable=0;points=[];autosize=1;strokeColor=none;fillColor=none;" vertex="1" parent="1">
          <mxGeometry x="208" y="585" width="25" height="27" as="geometry" />
        </mxCell>
        <mxCell id="eKpeVrbS-Dh2D0wG4F8s-79" value="1" style="text;html=1;align=center;verticalAlign=middle;resizable=0;points=[];autosize=1;strokeColor=none;fillColor=none;" vertex="1" parent="1">
          <mxGeometry x="240" y="580" width="25" height="27" as="geometry" />
        </mxCell>
        <mxCell id="eKpeVrbS-Dh2D0wG4F8s-91" value="N" style="text;html=1;align=center;verticalAlign=middle;resizable=0;points=[];autosize=1;strokeColor=none;fillColor=none;" vertex="1" parent="1">
          <mxGeometry x="513" y="850" width="27" height="27" as="geometry" />
        </mxCell>
        <mxCell id="eKpeVrbS-Dh2D0wG4F8s-97" value="N" style="text;html=1;align=center;verticalAlign=middle;resizable=0;points=[];autosize=1;strokeColor=none;fillColor=none;" vertex="1" parent="1">
          <mxGeometry x="873" y="850" width="27" height="27" as="geometry" />
        </mxCell>
        <mxCell id="eKpeVrbS-Dh2D0wG4F8s-98" value="N" style="text;html=1;align=center;verticalAlign=middle;resizable=0;points=[];autosize=1;strokeColor=none;fillColor=none;" vertex="1" parent="1">
          <mxGeometry x="651" y="848" width="27" height="27" as="geometry" />
        </mxCell>
        <mxCell id="eKpeVrbS-Dh2D0wG4F8s-101" value="N" style="text;html=1;align=center;verticalAlign=middle;resizable=0;points=[];autosize=1;strokeColor=none;fillColor=none;" vertex="1" parent="1">
          <mxGeometry x="289" y="518" width="27" height="27" as="geometry" />
        </mxCell>
        <mxCell id="eKpeVrbS-Dh2D0wG4F8s-117" value="N" style="text;html=1;align=center;verticalAlign=middle;resizable=0;points=[];autosize=1;strokeColor=none;fillColor=none;" vertex="1" parent="1">
          <mxGeometry x="509" y="444" width="27" height="27" as="geometry" />
        </mxCell>
        <mxCell id="eKpeVrbS-Dh2D0wG4F8s-118" value="N" style="text;html=1;align=center;verticalAlign=middle;resizable=0;points=[];autosize=1;strokeColor=none;fillColor=none;" vertex="1" parent="1">
          <mxGeometry x="285" y="564" width="27" height="27" as="geometry" />
        </mxCell>
        <mxCell id="eKpeVrbS-Dh2D0wG4F8s-119" value="1" style="text;html=1;align=center;verticalAlign=middle;resizable=0;points=[];autosize=1;strokeColor=none;fillColor=none;" vertex="1" parent="1">
          <mxGeometry x="516" y="635" width="25" height="27" as="geometry" />
        </mxCell>
        <mxCell id="eKpeVrbS-Dh2D0wG4F8s-120" value="N" style="text;html=1;align=center;verticalAlign=middle;resizable=0;points=[];autosize=1;strokeColor=none;fillColor=none;" vertex="1" parent="1">
          <mxGeometry x="825" y="539" width="27" height="27" as="geometry" />
        </mxCell>
        <mxCell id="eKpeVrbS-Dh2D0wG4F8s-121" value="&lt;div&gt;N&lt;/div&gt;" style="text;html=1;align=center;verticalAlign=middle;resizable=0;points=[];autosize=1;strokeColor=none;fillColor=none;" vertex="1" parent="1">
          <mxGeometry x="284" y="540.5" width="27" height="27" as="geometry" />
        </mxCell>
        <mxCell id="eKpeVrbS-Dh2D0wG4F8s-126" value="Gestisce" style="rhombus;whiteSpace=wrap;html=1;" vertex="1" parent="1">
          <mxGeometry x="554" y="551" width="80" height="28" as="geometry" />
        </mxCell>
        <mxCell id="eKpeVrbS-Dh2D0wG4F8s-127" value="" style="endArrow=none;html=1;rounded=0;exitX=0.5;exitY=0;exitDx=0;exitDy=0;entryX=0.5;entryY=1;entryDx=0;entryDy=0;" edge="1" parent="1" source="eKpeVrbS-Dh2D0wG4F8s-102" target="eKpeVrbS-Dh2D0wG4F8s-126">
          <mxGeometry width="50" height="50" relative="1" as="geometry">
            <mxPoint x="631" y="607" as="sourcePoint" />
            <mxPoint x="681" y="557" as="targetPoint" />
          </mxGeometry>
        </mxCell>
        <mxCell id="eKpeVrbS-Dh2D0wG4F8s-139" value="" style="endArrow=none;html=1;rounded=0;exitX=0.5;exitY=0;exitDx=0;exitDy=0;entryX=0.5;entryY=1;entryDx=0;entryDy=0;" edge="1" parent="1" source="eKpeVrbS-Dh2D0wG4F8s-126" target="eKpeVrbS-Dh2D0wG4F8s-82">
          <mxGeometry width="50" height="50" relative="1" as="geometry">
            <mxPoint x="515" y="583" as="sourcePoint" />
            <mxPoint x="565" y="533" as="targetPoint" />
          </mxGeometry>
        </mxCell>
        <mxCell id="eKpeVrbS-Dh2D0wG4F8s-140" value="N" style="text;html=1;align=center;verticalAlign=middle;resizable=0;points=[];autosize=1;strokeColor=none;fillColor=none;" vertex="1" parent="1">
          <mxGeometry x="574" y="489" width="27" height="27" as="geometry" />
        </mxCell>
        <mxCell id="eKpeVrbS-Dh2D0wG4F8s-141" value="1" style="text;html=1;align=center;verticalAlign=middle;resizable=0;points=[];autosize=1;strokeColor=none;fillColor=none;" vertex="1" parent="1">
          <mxGeometry x="588" y="603.5" width="25" height="27" as="geometry" />
        </mxCell>
      </root>
    </mxGraphModel>
  </diagram>
</mxfile>
